{"title":"Formula 1 2014-The F1 Show-11.04.14.720p.H264.AC3.TBK","uid":9945732,"size":1105832354,"categoryP":"video","categoryS":"hd___tv_shows","magnet":"?xt=urn:btih:b7add27eed4c9ded2f80761ae99a527412ee2676&amp;dn=Formula+1+2014-The+F1+Show-11.04.14.720p.H264.AC3.TBK&amp;tr=udp%3A%2F%2Ftracker.openbittorrent.com%3A80&amp;tr=udp%3A%2F%2Fopen.demonii.com%3A1337&amp;tr=udp%3A%2F%2Ftracker.coppersurfer.tk%3A6969&amp;tr=udp%3A%2F%2Fexodus.desync.com%3A6969","seeders":2,"leechers":0,"uploader":"tbkf1","files":3,"time":1397311176,"description":"The F1 Show 21.03.14\n\nCoverage of the SKY SPORTS F1 SHOW Mid-Week Report 11.04.14\n\n\nMAIN FILE DETAILS:\n\nAir Date: 11.04.14\nResolution: 1280x720\nVideo; AVC/H.264 Profile 4.0\nAudio: 6 Channels 5.1 Dolby Digital\nContainer: MKV\nFramerate: 25fps\nRunning Time: 47:22\nSource: Encoded From VU+ Solo2 PVR\nBroadcast: SKY SPORTS F1 HD  \nFilesize: 1.02GB\n\nSKY SPORTS F1 HD Mid Week Studio Edition with David Croft and Karun Chandhok discuss the Shanghai International Circuit, a track guaranteed to produce a great a race.\n\nFormula 1 Blog: see .txt file\n\n\nAll my torrents for F1 2013 are wrapped into MKV format. Resolution is scaled to 720p at 25fps with 6 channel AC3 Dolby Digital Audio (Where available)\n\nThese video files will play very fluidly with the standard media players such as VLC, WMP, KM Player, WMC, MP-HC.\n\nH.264 High Profile 4.0 has been used in combination with 50fps to maintain smooth and fluid playback with HD quality..\n\n\nI welcome any comments or suggestions...\n\n\nFOR ALL YOUR LATEST F1 NEWS, GOSSIP, TRACK GUIDES, DISCUSSION &amp; FULL TORRENT &amp; FILESHARE LINKS INFORMATION IN MORE DETAIL, AND ACCESS TO MUCH MORE, PLEASE KEEP YOUR EYE ON MY BLOG\n\n\n**For anyone having mkv playback issues on Windows 7 or 8, I do recommend installing the Shark Codec Packs which are available free on the link below: http://shark007.net/ (*NOTE: sharks default settings work well for WMP)\n\nEXTENDED FILE DETAILS:\nFormat                                   : AVC\nFormat/Info                              : Advanced Video Codec\nFormat profile                           : &lt;a class=&quot;__cf_email__&quot; href=&quot;/cdn-cgi/l/email-protection&quot; data-cfemail=&quot;d29abbb5ba929ee6fce2&quot;&gt;[email&amp;#160;protected]&lt;/a&gt;&lt;script cf-hash='f9e31' type=&quot;text/javascript&quot;&gt;\n/* &lt;![CDATA[ */!function(){try{var t=&quot;currentScript&quot;in document?document.currentScript:function(){for(var t=document.getElementsByTagName(&quot;script&quot;),e=t.length;e--;)if(t[e].getAttribute(&quot;cf-hash&quot;))return t[e]}();if(t&amp;&amp;t.previousSibling){var e,r,n,i,c=t.previousSibling,a=c.getAttribute(&quot;data-cfemail&quot;);if(a){for(e=&quot;&quot;,r=parseInt(a.substr(0,2),16),n=2;a.length-n;n+=2)i=parseInt(a.substr(n,2),16)^r,e+=String.fromCharCode(i);e=document.createTextNode(e),c.parentNode.replaceChild(e,c)}}}catch(u){}}();/* ]]&gt; */&lt;/script&gt;\nFormat settings, CABAC                   : Yes\nFormat settings, ReFrames                : 5 frames\nCodec ID                                 : V_MPEG4/ISO/AVC\nDuration                                 : 47mn 22s\nBit rate                                 : 2 666 Kbps\nWidth                                    : 1 280 pixels\nHeight                                   : 720 pixels\nDisplay aspect ratio                     : 16:9\nOriginal display aspect ratio            : 16:9\nFrame rate mode                          : Constant\nFrame rate                               : 25.000 fps\nColor space                              : YUV\nChroma subsampling                       : 4:2:0\nBit depth                                : 8 bits\nScan type                                : Progressive\nBits/(Pixel*Frame)                       : 0.116\nStream size                              : 903 MiB (86%)\nDefault                                  : Yes\nForced                                   : No\nColor primaries                          : BT.709\nTransfer characteristics                 : BT.709\nMatrix coefficients                      : BT.709\n\nAudio\nID                                       : 2\nFormat                                   : AC-3\nFormat/Info                              : Audio Coding 3\nMode extension                           : CM (complete main)\nFormat settings, Endianness              : Big\nCodec ID                                 : A_AC3\nDuration                                 : 47mn 22s\nBit rate mode                            : Constant\nBit rate                                 : 384 Kbps\nChannel(s)                               : 2 channels\nChannel positions                        : Front: L R\nSampling rate                            : 48.0 KHz\nBit depth                                : 16 bits\nCompression mode                         : Lossy\nStream size                              : 130 MiB (12%)\nLanguage                                 : English\nDefault                                  : Yes\nForced                                   : No\n\n\nForced                                   : No\n","torrent":{"xt":"urn:btih:b7add27eed4c9ded2f80761ae99a527412ee2676","amp;dn":"Formula+1+2014-The+F1+Show-11.04.14.720p.H264.AC3.TBK","amp;tr":["udp%3A%2F%2Ftracker.openbittorrent.com%3A80","udp%3A%2F%2Fopen.demonii.com%3A1337","udp%3A%2F%2Ftracker.coppersurfer.tk%3A6969","udp%3A%2F%2Fexodus.desync.com%3A6969"],"infoHash":"b7add27eed4c9ded2f80761ae99a527412ee2676","infoHashBuffer":{"type":"Buffer","data":[183,173,210,126,237,76,157,237,47,128,118,26,233,154,82,116,18,238,38,118]},"announce":[],"urlList":[]}}